<?xml version="1.0" encoding="UTF-8"?><svg id="Layer_1" xmlns="http://www.w3.org/2000/svg" viewBox="0 0 1200.3 505.75"><defs><style>.cls-1{fill:#e81123;}</style></defs><polygon class="cls-1" points="652.31 27.61 471.53 232.46 478.85 247.8 600.15 505.75 579.85 486.16 556.96 463.98 400.49 312.94 389.64 325.21 257.24 475.07 28.08 502.21 0 505.75 3.3 502.45 289.1 228.92 301.37 217.12 101.01 23.6 76.46 0 362.26 0 406.39 93.93 413.71 109.5 496.31 30.44 649 4.72 676.85 0 652.31 27.61"/><polygon class="cls-1" points="1167.73 27.38 900.34 252.76 900.58 252.76 912.38 266.21 1123.84 505.75 838.27 505.75 770.54 362.03 604.4 502.45 600.15 505.75 676.85 0 772.19 107.38 772.19 215 943.3 30.44 1200.3 0 1167.73 27.38"/></svg>