<?xml version="1.0" encoding="UTF-8"?><svg id="Layer_1" xmlns="http://www.w3.org/2000/svg" viewBox="0 0 1200.31 340.41"><defs><style>.cls-1{fill:#e81123;}</style></defs><path class="cls-1" d="M51.13,81L0,.21H70.27l11.15,21.67c5.89,11.15,10.31,21.67,10.31,21.67h1.47s5.47-12.83,10.1-21.67L114.45,0h70.69l-51.34,81,51.13,79.74H115.72l-11.99-22.51c-5.26-9.68-10.31-21.04-10.31-21.04h-1.47s-5.05,11.15-10.31,21.04l-11.99,22.51H.63L51.13,81Z"/><path class="cls-1" d="M193.35,.21h84.79c43.34,0,72.59,24.83,72.59,59.75,0,37.03-29.24,59.33-72.59,59.33h-19.36v41.45h-65.43V.21h0Zm77,75.32c10.31,0,15.36-6.73,15.36-16.2s-4.84-16.2-14.52-16.2h-12.41v32.4h11.57Z"/><path class="cls-1" d="M385.65,.21h71.53l57.23,160.53h-60.38l-7.78-25.46h-50.07l-7.57,25.46h-60.38L385.65,.21Zm48.81,96.15l-6.31-20.62c-2.52-9.89-4.63-19.78-6.1-29.88h-1.47s-2.95,19.78-6.1,29.88l-6.31,20.62h26.29Z"/><path class="cls-1" d="M704.82,.21h82.9c54.28,0,89,29.46,89,79.95s-34.72,80.58-89.21,80.58h-82.9V.21h.21Zm77.21,114.45c17.67,0,27.77-11.15,27.77-34.5s-10.94-33.87-27.77-33.87h-11.78V114.66h11.78Z"/><path class="cls-1" d="M886.18,.21h127.92V43.97h-62.49v14.52h49.86v42.71h-49.86v15.78h65.85v43.76h-131.5V.21h.22Z"/><path class="cls-1" d="M1028.41,.21h82.9c54.28,0,89,29.46,89,79.95s-34.72,80.58-89.21,80.58h-82.9l.21-160.53h0Zm77.21,114.45c17.67,0,27.77-11.15,27.77-34.5s-10.94-33.87-27.77-33.87h-11.78V114.66h11.78Z"/><path class="cls-1" d="M0,180.94H63.96v54.07h0l33.24-54.07h68.38l-39.97,75.74,42.5,81.21H97.62l-33.45-57.02h0v57.02H.21V180.94h-.21Z"/><path class="cls-1" d="M177.36,180.94h63.96v156.95h-63.96V180.94h0Z"/><path class="cls-1" d="M252.68,180.94h58.28l47.76,75.32h0l-.21-75.32h59.96v156.95h-60.59l-47.97-81.63h0l.21,81.63h-57.44V180.94h0Z"/><path class="cls-1" d="M527.46,179.47h78.69v46.92h-74.69c-29.03,0-40.19,14.73-40.19,31.77s11.78,33.87,38.08,33.87c11.99,0,22.09-4.84,26.09-9.26h-19.99v-34.93h70.48v88.79h-49.44v-13.04h0c-4.21,5.47-16.2,15.57-43.55,15.57-50.7,0-87.1-33.87-87.1-79.95s37.66-79.74,101.62-79.74h0Z"/><path class="cls-1" d="M617.3,180.73h81c53.23,0,87.1,28.82,87.1,78.27s-34.08,78.9-87.1,78.9h-81V180.73Zm75.53,112.14c17.25,0,27.14-10.94,27.14-33.87s-10.52-33.24-27.14-33.24h-11.57v66.91l11.57,.21h0Z"/><path class="cls-1" d="M899.02,178.62c-3.37-.21-6.94-.42-10.52-.42s-7.15,.21-10.52,.42c-54.28,3.79-86.47,36.19-86.47,79.74s32.19,77.85,86.47,81.63c3.37,.21,6.94,.42,10.52,.42s7.15-.21,10.52-.42c54.28-3.79,86.47-37.03,86.47-81.63s-32.19-75.95-86.47-79.74Zm-42.08,79.95c0-15.99,7.78-26.3,21.04-29.46,3.16-.84,6.73-1.26,10.52-1.26s7.36,.42,10.52,1.26c13.25,3.37,21.04,13.68,21.04,29.46,0,16.83-7.78,27.77-21.04,31.35-3.16,.84-6.73,1.26-10.52,1.26s-7.36-.42-10.52-1.26c-13.25-3.58-21.04-14.52-21.04-31.35Z"/><path class="cls-1" d="M995.38,180.94h78.06l24.83,84.58h0s21.67-74.27,25.04-84.58h77v156.95h-57.44l-.21-83.95h0l-24.41,83.95h-39.34l-18.94-59.75-7.57-24.2h0v83.95h-57.23l.21-156.95h0Z"/><path class="cls-1" d="M524.3,.21h59.75l48.81,77h0V.21h61.22V160.74h-61.86l-49.02-83.53h0l.21,83.53h-58.7V.21h-.41Z"/></svg>